<svg width="96" height="96" viewBox="0 0 96 96" fill="none" xmlns="http://www.w3.org/2000/svg">
<rect width="96" height="96" rx="16" fill="#0A0A0A"/>
<path d="M18.6667 55.3333C17.9729 55.3357 17.2926 55.1411 16.7049 54.7723C16.1172 54.4034 15.6462 53.8753 15.3467 53.2494C15.0472 52.6235 14.9315 51.9255 15.0129 51.2364C15.0943 50.5474 15.3696 49.8955 15.8067 49.3567L52.1067 11.9567C52.379 11.6424 52.7501 11.43 53.159 11.3544C53.5679 11.2787 53.9904 11.3444 54.3571 11.5405C54.7238 11.7367 55.0129 12.0516 55.177 12.4337C55.341 12.8158 55.3703 13.2424 55.2601 13.6433L48.2201 35.7167C48.0125 36.2723 47.9427 36.8699 48.0169 37.4584C48.091 38.0468 48.3068 38.6085 48.6457 39.0952C48.9846 39.582 49.4366 39.9792 49.9627 40.2529C50.4889 40.5266 51.0736 40.6686 51.6667 40.6667H77.3334C78.0272 40.6643 78.7075 40.8589 79.2952 41.2278C79.8829 41.5966 80.3539 42.1247 80.6534 42.7506C80.9529 43.3765 81.0686 44.0745 80.9872 44.7636C80.9058 45.4527 80.6305 46.1045 80.1934 46.6433L43.8934 84.0433C43.6211 84.3576 43.25 84.57 42.8411 84.6456C42.4322 84.7213 42.0097 84.6556 41.643 84.4595C41.2764 84.2634 40.9872 83.9484 40.8232 83.5663C40.6591 83.1842 40.6298 82.7576 40.7401 82.3567L47.7801 60.2833C47.9876 59.7278 48.0574 59.1301 47.9832 58.5417C47.9091 57.9532 47.6933 57.3915 47.3544 56.9048C47.0155 56.418 46.5636 56.0208 46.0374 55.7471C45.5112 55.4734 44.9265 55.3314 44.3334 55.3333H18.6667Z" stroke="#FAFAFA" stroke-width="4" stroke-linecap="round" stroke-linejoin="round"/>
</svg>
